<svg width="713" height="191" viewBox="0 0 713 191" fill="none" xmlns="http://www.w3.org/2000/svg">
<path d="M0.400001 146V84.4C0.400001 76.5333 2.13333 69.4 5.6 63C9.2 56.4667 14.2667 51.2667 20.8 47.4C27.3333 43.5333 35.1333 41.6 44.2 41.6C48.8667 41.6 53.6 42.3333 58.4 43.8C63.3333 45.1333 67.8667 47.5333 72 51C76.2667 54.3333 79.6 59 82 65H82.2C84.6 59 87.9333 54.3333 92.2 51C96.4667 47.5333 101.067 45.1333 106 43.8C110.933 42.3333 115.667 41.6 120.2 41.6C129.4 41.6 137.267 43.5333 143.8 47.4C150.333 51.2667 155.333 56.4667 158.8 63C162.267 69.4 164 76.5333 164 84.4V146H150.2V84.4C150.2 78.4 148.867 73.1333 146.2 68.6C143.533 64.0667 139.933 60.4667 135.4 57.8C131 55 125.933 53.6 120.2 53.6C114.333 53.6 109.067 55 104.4 57.8C99.7333 60.4667 96 64.1333 93.2 68.8C90.5333 73.4667 89.2 78.6667 89.2 84.4V146H75.2V84.4C75.2 78.6667 73.8 73.4667 71 68.8C68.2 64.1333 64.4667 60.4667 59.8 57.8C55.2667 55 50.0667 53.6 44.2 53.6C38.6 53.6 33.4667 55 28.8 57.8C24.2667 60.4667 20.6667 64.0667 18 68.6C15.4667 73.1333 14.2 78.4 14.2 84.4V146H0.400001ZM234.536 186.6V148C227.069 147.067 220.336 144.733 214.336 141C208.336 137.133 203.536 132 199.936 125.6C196.469 119.2 194.736 111.8 194.736 103.4V44H208.736V102.8C208.736 109.867 210.269 115.933 213.336 121C216.536 126.067 220.603 129.933 225.536 132.6C230.469 135.133 235.736 136.4 241.336 136.4C247.069 136.4 252.403 135.067 257.336 132.4C262.403 129.733 266.469 125.933 269.536 121C272.736 115.933 274.336 109.867 274.336 102.8V44H288.136V103.4C288.136 111.933 286.336 119.4 282.736 125.8C279.269 132.067 274.536 137.133 268.536 141C262.536 144.733 255.869 147 248.536 147.8V186.6H234.536ZM477.684 190.4C471.551 190.4 465.951 189.067 460.884 186.4C455.951 183.867 452.018 180.067 449.084 175C446.284 170.067 444.884 164 444.884 156.8C444.884 155.2 444.951 153.467 445.084 151.6C445.218 149.867 445.418 148.133 445.684 146.4C434.751 147.333 424.484 146.333 414.884 143.4C405.284 140.467 396.818 135.8 389.484 129.4C382.151 123 376.418 115.267 372.284 106.2C368.151 97 366.084 86.6667 366.084 75.2C366.084 65.3333 367.751 56.0667 371.084 47.4C374.551 38.7333 379.418 31.1333 385.684 24.6C391.951 17.9333 399.484 12.7333 408.284 8.99999C417.084 5.26665 426.884 3.39999 437.684 3.39999C448.618 3.39999 458.484 5.26665 467.284 8.99999C476.084 12.6 483.618 17.6667 489.884 24.2C496.151 30.7333 500.951 38.3333 504.284 47C507.618 55.5333 509.284 64.6667 509.284 74.4V155.4C509.284 162.733 507.951 169 505.284 174.2C502.751 179.4 499.084 183.4 494.284 186.2C489.484 189 483.951 190.4 477.684 190.4ZM476.684 177C481.751 177 486.018 175.267 489.484 171.8C493.084 168.333 494.884 163.067 494.884 156V102C486.884 106.667 480.484 111.533 475.684 116.6C470.884 121.533 467.218 126.4 464.684 131.2C462.284 136 460.684 140.467 459.884 144.6C459.084 148.733 458.684 152.333 458.684 155.4C458.684 160.067 459.484 164 461.084 167.2C462.818 170.533 465.084 173 467.884 174.6C470.684 176.2 473.618 177 476.684 177ZM437.684 134C440.084 134 442.218 133.933 444.084 133.8C445.951 133.533 448.018 133.2 450.284 132.8C452.151 127.733 454.818 122.533 458.284 117.2C461.884 111.867 466.618 106.667 472.484 101.6C478.484 96.4 485.951 91.4667 494.884 86.8V74.4C494.884 66.1333 493.418 58.4667 490.484 51.4C487.684 44.3333 483.684 38.2 478.484 33C473.418 27.6667 467.418 23.6 460.484 20.8C453.551 17.8667 445.951 16.4 437.684 16.4C429.551 16.4 421.951 17.8667 414.884 20.8C407.951 23.7333 401.884 27.8667 396.684 33.2C391.618 38.4 387.618 44.6 384.684 51.8C381.884 59 380.484 66.8 380.484 75.2C380.484 83.6 381.884 91.4 384.684 98.6C387.618 105.8 391.618 112.067 396.684 117.4C401.884 122.6 407.951 126.667 414.884 129.6C421.951 132.533 429.551 134 437.684 134ZM538.877 146V44H552.877V146H538.877ZM545.877 25.6C543.21 25.6 540.877 24.6 538.877 22.6C536.877 20.6 535.877 18.2667 535.877 15.6C535.877 12.8 536.877 10.4667 538.877 8.59999C540.877 6.59999 543.21 5.6 545.877 5.6C548.677 5.6 551.01 6.59999 552.877 8.59999C554.877 10.4667 555.877 12.8 555.877 15.6C555.877 18.2667 554.877 20.6 552.877 22.6C551.01 24.6 548.677 25.6 545.877 25.6ZM589.403 146V56.2H571.403V44H589.403V29C589.403 19.9333 591.936 12.8667 597.003 7.79999C602.203 2.59999 609.336 -3.8147e-06 618.403 -3.8147e-06H641.603V12.2H621.003C615.27 12.2 610.87 13.8 607.803 17C604.736 20.2 603.203 24.7333 603.203 30.6V44H637.803V56.2H603.203V146H589.403ZM689.492 146C680.426 146 673.292 143.4 668.092 138.2C663.026 133 660.492 125.933 660.492 117V18.4H674.492V115.4C674.492 121.267 675.959 125.8 678.892 129C681.959 132.2 686.426 133.8 692.292 133.8H711.892V146H689.492ZM642.692 56.2V44H712.292V56.2H642.692Z" fill="white"/>
</svg>
