<svg width="933" height="1199" viewBox="0 0 933 1199" fill="none" xmlns="http://www.w3.org/2000/svg">
<path d="M288.041 827.799V1061.03L151.541 1195.22" stroke="#722D54" stroke-width="6" stroke-miterlimit="10" stroke-linecap="round"/>
<path d="M322.531 827.799V1061.03L459.041 1195.22" stroke="#722D54" stroke-width="6" stroke-miterlimit="10" stroke-linecap="round"/>
<path d="M304.62 1063.75V1195.23" stroke="#722D54" stroke-width="6" stroke-miterlimit="10" stroke-linecap="round"/>
<path d="M255.65 795.769H358.16C358.16 804.256 354.789 812.396 348.788 818.397C342.787 824.398 334.647 827.769 326.16 827.769H287.68C279.193 827.769 271.054 824.398 265.053 818.397C259.052 812.396 255.68 804.256 255.68 795.769H255.65Z" fill="white" stroke="#722D54" stroke-width="5" stroke-miterlimit="10"/>
<path d="M244.901 738.489H213.901L201.821 671.169H232.821L244.901 738.489Z" fill="white" stroke="#722D54" stroke-width="5" stroke-miterlimit="10"/>
<path d="M484.81 752.829V778.919C484.81 782.369 475.36 785.609 458.93 788.359C427.37 793.649 370.07 797.189 304.61 797.189C205.1 797.189 124.42 789.009 124.42 778.919V752.829C124.42 757.939 145.14 762.559 178.53 765.879C211.03 769.109 255.53 771.099 304.61 771.099C353.69 771.099 398.2 769.099 430.7 765.879C441.54 764.799 451.04 763.589 458.93 762.269C475.36 759.519 484.81 756.279 484.81 752.829Z" fill="white" stroke="#722D54" stroke-width="5" stroke-miterlimit="10"/>
<path d="M484.81 752.829C484.81 756.279 475.36 759.519 458.93 762.269C451.04 763.589 441.54 764.799 430.7 765.879C398.2 769.109 353.7 771.099 304.61 771.099C255.52 771.099 211.03 769.099 178.53 765.879C145.14 762.559 124.42 757.939 124.42 752.829C124.42 742.739 205.1 734.559 304.61 734.559C383.73 734.559 450.94 739.729 475.17 746.919C481.42 748.779 484.81 750.759 484.81 752.829Z" fill="white" stroke="#722D54" stroke-width="5" stroke-miterlimit="10"/>
<path d="M250.07 680.379H192.99C142.5 680.379 94.3605 640.139 85.4505 590.509L65.1405 477.239C56.2405 427.609 89.9505 387.369 140.44 387.369H197.55C248.04 387.369 296.18 427.609 305.08 477.239L325.4 590.509C334.3 640.139 300.59 680.379 250.07 680.379Z" fill="white" stroke="#722D54" stroke-width="5" stroke-miterlimit="10"/>
<path d="M288.041 1061.03H322.541" stroke="#722D54" stroke-width="6" stroke-miterlimit="10" stroke-linecap="round"/>
<path d="M192.661 285.029C226.301 242.079 198.091 194.449 205.731 168.709C220.661 118.349 285.541 179.299 311.281 116.959C311.281 116.959 349.351 143.629 353.281 138.389L451.751 129.209C487.511 91.0594 474.751 49.2894 460.181 33.2094C460.181 33.2094 415.181 -18.0506 363.941 6.79944C336.471 20.1294 314.101 61.9394 308.591 94.7994C302.641 130.329 249.501 24.7994 172.181 60.5394C121.561 84.0294 159.961 157.159 100.791 158.909C23.0705 161.219 -13.8395 238.369 77.2705 305.029C121.071 337.119 170.341 313.539 192.661 285.029Z" fill="#722D54"/>
<path d="M302.901 100.779L312.241 118.889" stroke="#F8C630" stroke-width="10" stroke-linecap="round" stroke-linejoin="round"/>
<path d="M62.615 349.756C73.6166 330.701 72.9774 309.736 61.1875 302.929C49.3976 296.122 30.9215 306.051 19.92 325.106C8.91849 344.162 9.55761 365.127 21.3475 371.934C33.1374 378.741 51.6135 368.812 62.615 349.756Z" fill="#722D54"/>
<path d="M56.9805 294.749L72.3005 306.929" stroke="#F8C630" stroke-width="10" stroke-linecap="round" stroke-linejoin="round"/>
<path d="M227.071 518.029C227.071 518.029 99.1506 701.289 231.341 748.529C319.261 779.949 495.831 776.969 604.251 771.439C630.274 770.113 655.073 759.981 674.581 742.707C694.088 725.432 707.146 702.041 711.611 676.369V676.369C714.663 658.874 711.452 640.863 702.541 625.501C693.631 610.138 679.592 598.408 662.891 592.369C587.661 565.189 460.741 517.969 384.141 505.029C384.141 505.029 321.071 538.079 227.071 518.029Z" fill="#F8C630"/>
<path d="M816.251 1103.97C816.251 1103.97 781.491 1117.15 806.981 1191.86H812.671C812.671 1191.86 818.401 1154.26 824.761 1153.94C831.121 1153.62 848.941 1191.86 858.171 1191.86H932.29C932.29 1191.86 930.7 1176.73 919.29 1175.1C907.88 1173.47 884.29 1149.38 884.29 1149.38L816.251 1103.97Z" fill="#722D54"/>
<path d="M686.411 602.459C732.501 616.899 771.611 931.749 884.251 1149.38C884.251 1149.38 822.691 1144.99 816.251 1103.97C816.251 1103.97 629.381 911.339 624.391 796.349C619.401 681.359 658.071 593.589 686.411 602.459Z" fill="#A85F2B"/>
<path d="M616.33 1103.97C616.33 1103.97 581.57 1117.15 607.06 1191.86H612.75C612.75 1191.86 618.48 1154.26 624.84 1153.94C631.2 1153.62 649.02 1191.86 658.25 1191.86H732.37C732.37 1191.86 730.78 1176.73 719.37 1175.1C707.96 1173.47 684.37 1149.38 684.37 1149.38L616.33 1103.97Z" fill="#722D54"/>
<path d="M616.54 1104.27C616.54 1104.27 540.34 858.269 560.71 761.869C585.52 644.489 652.28 581.029 684.25 602.459C716.22 623.889 629.42 954.609 661.15 1104.27C665.07 1122.74 686.69 1151.39 686.69 1151.39C686.69 1151.39 604.61 1142.85 616.54 1104.27Z" fill="#B6732B"/>
<path d="M185.361 216.269C199.361 204.929 255.101 176.869 319.021 164.529C382.941 152.189 414.391 173.949 424.141 188.529C437.281 208.139 416.971 231.429 426.511 289.299C433.671 332.759 450.571 363.679 441.761 386.039C428.321 420.129 391.861 420.719 390.701 500.739C390.261 530.619 244.401 532.349 227.701 518.019C211.001 503.689 148.161 246.389 185.361 216.269Z" fill="#F8C630"/>
<path d="M173.381 238.029C153.081 324.919 209.161 460.479 242.601 460.479C313.861 460.509 436.741 328.029 436.741 328.029L429.941 303.329L260.491 387.559C260.491 387.559 250.401 282.659 240.801 246.159C230.991 208.839 183.731 193.779 173.381 238.029Z" fill="#B6732B"/>
<path d="M576.904 273.387C599.894 256.287 606.869 226.744 592.483 207.401C578.096 188.057 547.795 186.238 524.804 203.337C501.814 220.436 494.839 249.979 509.225 269.323C523.612 288.667 553.913 290.486 576.904 273.387Z" fill="#F1F0FF"/>
<path d="M571.103 259.145C594.334 241.722 601.46 211.988 587.019 192.733C572.578 173.479 542.038 171.994 518.807 189.417C495.575 206.841 488.45 236.575 502.891 255.829C517.332 275.084 547.871 276.569 571.103 259.145Z" stroke="#F8C630" stroke-width="5" stroke-linejoin="round"/>
<path d="M580.29 224.669C577.94 242.989 560.45 258.669 541.24 259.719" stroke="#D1D1FF" stroke-width="5" stroke-linejoin="round"/>
<path d="M497.141 268.899L440.231 335.089C439.012 336.81 438.491 338.929 438.773 341.019C439.055 343.109 440.119 345.013 441.751 346.349V346.349C442.532 346.998 443.438 347.478 444.414 347.76C445.389 348.042 446.412 348.121 447.418 347.99C448.425 347.86 449.394 347.524 450.265 347.002C451.136 346.481 451.89 345.785 452.481 344.959L509.391 278.759C510.61 277.039 511.13 274.92 510.848 272.83C510.566 270.74 509.502 268.835 507.871 267.499V267.499C507.089 266.85 506.182 266.37 505.207 266.087C504.231 265.805 503.207 265.727 502.2 265.858C501.193 265.99 500.224 266.328 499.353 266.851C498.482 267.374 497.729 268.072 497.141 268.899V268.899Z" fill="white" stroke="#722D54" stroke-width="5" stroke-miterlimit="10"/>
<path d="M424.911 306.219C432.331 299.309 480.911 287.139 485.851 290.219C490.791 293.299 530.071 300.749 530.071 300.749C530.071 300.749 529.291 310.139 513.721 308.519C495.641 306.639 491.811 310.439 491.811 310.439C491.811 310.439 494.311 320.329 488.701 324.099C483.091 327.869 490.511 333.199 482.701 340.519C478.121 344.799 477.931 350.119 471.961 351.249C465.991 352.379 429.451 333.889 423.411 322.579C418.251 313.029 420.501 310.319 424.911 306.219Z" fill="#B6732B"/>
<path d="M250.951 183.329C262.621 178.439 316.951 143.739 345.091 106.439L363.141 158.939C363.141 158.939 375.141 212.279 307.701 215.939C265.911 218.149 250.951 183.329 250.951 183.329Z" fill="#B6732B"/>
<path d="M348.301 202.919C323.811 180.119 328.191 135.919 344.401 107.339C344.641 107.039 344.871 106.739 345.091 106.439L363.151 158.939C363.151 158.939 369.241 186.029 348.301 202.919Z" fill="#A85F2B"/>
<path d="M436.52 67.4894C453.66 68.6094 465.52 93.6794 457.57 116.489C449.62 139.299 417.95 184.829 396.29 183.259C361.21 180.729 343.2 132.079 343.97 111.739C343.97 111.739 344.26 88.4194 370.03 93.7394C391.22 98.0894 412.21 92.3594 421.3 80.8394C430.39 69.3194 436.52 67.4894 436.52 67.4894Z" fill="#B6732B"/>
</svg>
